<?xml version="1.0" encoding="UTF-8" standalone="no"?>
<svg width="130px" height="65px" viewBox="0 0 130 65" version="1.1" xmlns="http://www.w3.org/2000/svg" xmlns:xlink="http://www.w3.org/1999/xlink" xmlns:sketch="http://www.bohemiancoding.com/sketch/ns">
    <!-- Generator: Sketch 3.3.2 (12043) - http://www.bohemiancoding.com/sketch -->
    <title>logo-n</title>
    <desc>Created with Sketch.</desc>
    <defs></defs>
    <g id="UI" stroke="none" stroke-width="1" fill="none" fill-rule="evenodd" sketch:type="MSPage">
        <g id="01.-Home-Page" sketch:type="MSArtboardGroup" transform="translate(-40.000000, -30.000000)">
            <g id="SECTION---Top-Hero" sketch:type="MSLayerGroup" transform="translate(-31.000000, 0.000000)">
                <g id="logo-n" transform="translate(71.000000, 30.000000)" sketch:type="MSShapeGroup">
                    <path d="M94.045455,46.5540518 C88.4654685,57.8943714 77.467527,64.6814953 64.9992387,65 C52.0368802,64.9070082 41.9929923,57.8084591 35.9529757,46.5540518 L38.006923,46.5540518 C43.241209,56.8687482 53.6627644,62.8833235 64.9992387,63.1729729 C76.4782973,63.1636797 86.5763108,56.6149409 91.9915135,46.5540518 L94.045455,46.5540518 L94.045455,46.5540518 Z" id="Fill-1" fill="#FFFFFE"></path>
                    <path d="M64.9992387,0 C77.4860315,0.0919454545 89.4922342,7.58022318 94.4135541,19.3242341 L92.4318153,19.3242341 C87.1827432,8.58848545 76.7881306,2.1619 64.9992387,1.86130455 C52.7382477,1.94929091 43.2554095,8.66855955 37.5666387,19.3242341 L35.5848473,19.3242341 C40.5078712,7.41270636 52.5158131,0.318204545 64.9992387,0 L64.9992387,0 Z" id="Fill-2" fill="#FF3335"></path>
                    <path d="M7.67097207,27.7238177 C9.0673536,27.7238177 10.3798383,28.0760823 11.6084671,28.7806173 C12.8371018,29.4851523 13.7959631,30.4412964 14.485086,31.6490732 C15.1742032,32.85685 15.5187617,34.1606791 15.5187617,35.5606018 C15.5187617,36.9696718 15.1719369,38.2872277 14.4782815,39.513305 C13.7846261,40.7393764 12.839368,41.6978073 11.6424721,42.3886214 C10.4455761,43.0794295 9.12628694,43.4248336 7.68457523,43.4248336 C5.56280541,43.4248336 3.7516214,42.6631223 2.25096815,41.1396759 C0.750315495,39.6162295 0,37.7657091 0,35.5880495 C0,33.254845 0.847787973,31.3105355 2.54339027,29.7550677 C4.03044212,28.4008932 5.73961946,27.7238177 7.67097207,27.7238177 L7.67097207,27.7238177 L7.67097207,27.7238177 Z M7.72537883,31.2510545 C6.57381892,31.2510545 5.61495707,31.6559277 4.84876284,32.4656859 C4.08256802,33.27545 3.69947676,34.3116505 3.69947676,35.5743227 C3.69947676,36.8736018 4.07803441,37.9258159 4.83516144,38.7309945 C5.59228847,39.5361791 6.5511509,39.9387655 7.71177568,39.9387655 C8.87240045,39.9387655 9.83806622,39.5316055 10.6087905,38.7172736 C11.3795207,37.9029359 11.764877,36.8553014 11.764877,35.5743227 C11.764877,34.29335 11.3863194,33.2525759 10.6291923,32.451965 C9.87206532,31.6513541 8.90413919,31.2510545 7.72537883,31.2510545 L7.72537883,31.2510545 L7.72537883,31.2510545 Z M22.2376653,28.1081095 L22.2376653,29.7550677 C22.9086527,29.0779805 23.6340293,28.5701709 24.4138243,28.2316332 C25.1936194,27.8930895 26.0278095,27.7238177 26.9164122,27.7238177 C28.8477671,27.7238177 30.488941,28.4603682 31.8399806,29.9334868 C33.1910203,31.4066114 33.8665342,33.2960195 33.8665342,35.6017764 C33.8665342,37.8251782 33.1683523,39.6848518 31.7719766,41.1808505 C30.3756009,42.6768432 28.7208239,43.4248336 26.8076045,43.4248336 C25.955273,43.4248336 25.1618865,43.2715755 24.4274275,42.9650532 C23.6929685,42.6585368 22.9630536,42.1575936 22.2376653,41.4622059 L22.2376653,48.5029586 L18.5517847,48.5029586 L18.5517847,28.1081095 L22.2376653,28.1081095 L22.2376653,28.1081095 Z M26.1411554,31.1824323 C24.9714599,31.1824323 24.0012676,31.5850186 23.2305374,32.3902032 C22.4598072,33.1953877 22.0744509,34.2476018 22.0744509,35.546875 C22.0744509,36.8736018 22.4598072,37.9463973 23.2305374,38.7653086 C24.0012676,39.58422 24.9714599,39.9936668 26.1411554,39.9936668 C27.2745797,39.9936668 28.2289086,39.5773536 29.0041712,38.7447214 C29.7794338,37.9120891 30.1670563,36.8507277 30.1670563,35.5606018 C30.1670563,34.2796232 29.7862324,33.2297018 29.024573,32.4107905 C28.2629077,31.5918791 27.3017802,31.1824323 26.1411554,31.1824323 L26.1411554,31.1824323 L26.1411554,31.1824323 Z M37.3891946,22.6045182 L41.0886725,22.6045182 L41.0886725,28.1081095 L43.2920378,28.1081095 L43.2920378,31.3334036 L41.0886725,31.3334036 L41.0886725,43.0405418 L37.3891946,43.0405418 L37.3891946,31.3334036 L35.4850518,31.3334036 L35.4850518,28.1081095 L37.3891946,28.1081095 L37.3891946,22.6045182 L37.3891946,22.6045182 Z M51.7926734,22.8515655 L55.6553599,22.8515655 L63.353509,43.0405418 L59.3956532,43.0405418 L57.8315248,38.8819659 L49.6709153,38.8819659 L48.0387946,43.0405418 L44.0808977,43.0405418 L51.7926734,22.8515655 L51.7926734,22.8515655 Z M53.7512171,28.2041795 L51.0854207,35.1351355 L56.4034162,35.1351355 L53.7512171,28.2041795 L53.7512171,28.2041795 Z M76.8321667,22.34375 L80.5316036,22.34375 L80.5316036,43.0405418 L76.8321667,43.0405418 L76.8321667,41.4622059 C76.1067432,42.1575936 75.3790946,42.6585368 74.6491622,42.9650532 C73.9192297,43.2715755 73.1281622,43.4248336 72.2757838,43.4248336 C70.3625586,43.4248336 68.7078108,42.6768432 67.3114234,41.1808505 C65.915036,39.6848518 65.2169009,37.8251782 65.2169009,35.6017764 C65.2169009,33.2960195 65.8923739,31.4066114 67.2434369,29.9334868 C68.5944414,28.4603682 70.2356622,27.7238177 72.166982,27.7238177 C73.0556081,27.7238177 73.8897748,27.8930895 74.6695991,28.2316332 C75.4493649,28.5701709 76.1702207,29.0779805 76.8321667,29.7550677 L76.8321667,22.34375 L76.8321667,22.34375 Z M72.9286532,31.1824323 C71.7770991,31.1824323 70.8204865,31.5918791 70.0588153,32.4107905 C69.2972027,33.2297018 68.9163378,34.2796232 68.9163378,35.5606018 C68.9163378,36.8507277 69.3039955,37.9120891 70.0792523,38.7447214 C70.854509,39.5773536 71.8088378,39.9936668 72.9422387,39.9936668 C74.1119459,39.9936668 75.0821441,39.58422 75.8528919,38.7653086 C76.6235811,37.9463973 77.008955,36.8736018 77.008955,35.546875 C77.008955,34.2476018 76.6235811,33.1953877 75.8528919,32.3902032 C75.0821441,31.5850186 74.1074369,31.1824323 72.9286532,31.1824323 L72.9286532,31.1824323 L72.9286532,31.1824323 Z" id="Fill-3" fill="#FFFFFE"></path>
                    <path d="M87.8353784,27.5316718 L85.7951982,27.5316718 C86.1669865,25.8664073 86.8787658,24.5854523 87.9305946,23.6887655 C88.9823649,22.7920845 90.2246261,22.34375 91.6572613,22.34375 C92.7000135,22.34375 93.6724955,22.5839309 94.5746486,23.0642927 C95.4768604,23.5446605 96.1750541,24.1920014 96.6692297,25.0063332 C97.1634054,25.8206709 97.410464,26.6715918 97.410464,27.5591195 C97.410464,29.2975859 96.5536351,30.6746168 94.8399189,31.6902477 C95.8010405,32.0836868 96.5898829,32.6601186 97.2064459,33.419555 C98.0769189,34.4900814 98.5121847,35.6886932 98.5121847,37.0154141 C98.5121847,38.1591423 98.2129505,39.2502441 97.614482,40.2887491 C97.0160721,41.3272541 96.2,42.1301341 95.1663243,42.6974245 C94.1326486,43.264715 92.9765856,43.5483514 91.6980766,43.5483514 C89.9752252,43.5483514 88.5380811,43.0474082 87.386527,42.0455041 C86.234973,41.0436 85.4823784,39.5727859 85.1287432,37.6330264 L87.0872928,37.6330264 C87.4318514,38.9414468 87.926027,39.8884436 88.5698198,40.4740286 C89.3949685,41.2151645 90.4467387,41.5857295 91.7252477,41.5857295 C93.176036,41.5857295 94.3411757,41.1465423 95.2207252,40.2681618 C96.1002748,39.3897755 96.539991,38.3604355 96.539991,37.1801123 C96.539991,36.3932282 96.3201622,35.6566777 95.8803874,34.9704373 C95.4406126,34.2842027 94.8512207,33.7672459 94.1122117,33.419555 C93.3732613,33.0718582 92.2285,32.8568441 90.6779865,32.774495 L90.6779865,30.9216641 C91.5937838,30.9216641 92.4279505,30.7592586 93.180545,30.4344359 C93.9331396,30.1096191 94.479491,29.6955986 94.819482,29.1923568 C95.1595315,28.689115 95.329527,28.1401368 95.329527,27.5453986 C95.329527,26.6670123 94.9826847,25.9075877 94.2890586,25.2671014 C93.5953739,24.626615 92.7181667,24.3063777 91.6572613,24.3063777 C90.7958649,24.3063777 90.0523468,24.5511323 89.4267072,25.0406473 C88.801009,25.5301623 88.2705856,26.3604959 87.8353784,27.5316718 L87.8353784,27.5316718 L87.8353784,27.5316718 Z M109.800986,22.34375 L111.446716,23.4279973 L106.047149,31.6902477 C106.772514,31.4432005 107.452554,31.3196768 108.08727,31.3196768 C109.67409,31.3196768 111.020586,31.8983955 112.126757,33.0558505 C113.232986,34.2132995 113.786131,35.6383655 113.786131,37.3310836 C113.786131,38.4931064 113.518635,39.5430336 112.983644,40.4808891 C112.448653,41.4187505 111.689266,42.1644482 110.705482,42.7180118 C109.72164,43.2715755 108.663077,43.5483514 107.529617,43.5483514 C106.432464,43.5483514 105.414716,43.2807286 104.476198,42.7454595 C103.537739,42.2101964 102.801014,41.4576323 102.266023,40.4877555 C101.73109,39.5178727 101.463595,38.4793855 101.463595,37.3722582 C101.463595,36.5487732 101.629081,35.6818386 101.960054,34.7714309 C102.290968,33.8610232 102.882644,32.7653477 103.734964,31.484375 L109.800986,22.34375 L109.800986,22.34375 Z M107.611248,33.0901586 C106.450617,33.0901586 105.460041,33.504185 104.639401,34.3322436 C103.81882,35.1603023 103.408559,36.1644814 103.408559,37.3448045 C103.408559,38.5159864 103.81882,39.5155859 104.639401,40.3436445 C105.460041,41.1717032 106.450617,41.5857295 107.611248,41.5857295 C108.771878,41.5857295 109.762455,41.1717032 110.583095,40.3436445 C111.403676,39.5155859 111.813937,38.5159864 111.813937,37.3448045 C111.813937,36.1644814 111.403676,35.1603023 110.583095,34.3322436 C109.762455,33.504185 108.771878,33.0901586 107.611248,33.0901586 L107.611248,33.0901586 L107.611248,33.0901586 Z M115.907883,32.9529141 C115.907883,30.2903191 116.191248,28.2316391 116.757919,26.776815 C117.324649,25.3219968 118.124851,24.219455 119.158527,23.4691718 C120.192203,22.7188886 121.348266,22.34375 122.626775,22.34375 C123.923437,22.34375 125.097595,22.7211755 126.149423,23.4760323 C127.201252,24.230895 128.033194,25.3631655 128.645248,26.8728909 C129.257243,28.3826105 129.56327,30.4092632 129.56327,32.9529141 C129.56327,35.4874118 129.261811,37.5049173 128.658833,39.0054895 C128.055856,40.5060618 127.223914,41.6383323 126.163009,42.4023423 C125.102162,43.1663523 123.923437,43.5483514 122.626775,43.5483514 C121.348266,43.5483514 120.196712,43.1777923 119.172113,42.4366564 C118.147514,41.6955205 117.347311,40.5906977 116.771505,39.1221527 C116.195757,37.6536018 115.907883,35.5972145 115.907883,32.9529141 L115.907883,32.9529141 L115.907883,32.9529141 Z M117.798387,32.9940886 C117.798387,35.2723918 118.00018,36.9948209 118.403649,38.1614232 C118.807176,39.3280255 119.403302,40.2132605 120.192203,40.8171459 C120.981045,41.4210314 121.815212,41.7229741 122.694761,41.7229741 C123.583387,41.7229741 124.413045,41.4278977 125.183734,40.8377332 C125.954482,40.2475686 126.539306,39.3623395 126.938266,38.1820105 C127.437009,36.7454868 127.686351,35.0161973 127.686351,32.9940886 C127.686351,30.9628268 127.46418,29.2998727 127.019896,28.0051732 C126.575613,26.7104736 125.961275,25.7634827 125.176941,25.1641709 C124.392608,24.5648532 123.565234,24.2652032 122.694761,24.2652032 C121.806194,24.2652032 120.971968,24.5648532 120.192203,25.1641709 C119.412378,25.7634827 118.818477,26.646425 118.410441,27.8130273 C118.002405,28.9796295 117.798387,30.7066323 117.798387,32.9940886 L117.798387,32.9940886 L117.798387,32.9940886 Z" id="Fill-4" fill="#FF3335"></path>
                </g>
            </g>
        </g>
    </g>
</svg>